<mxfile host="65bd71144e">
    <diagram id="hMHbX8SDWjdqnEKLm0F6" name="Page-2">
        <mxGraphModel dx="1142" dy="530" grid="1" gridSize="10" guides="1" tooltips="1" connect="1" arrows="1" fold="1" page="1" pageScale="1" pageWidth="827" pageHeight="1169" math="0" shadow="0">
            <root>
                <mxCell id="inrUxBcmJeVZfQg9o6Wa-0"/>
                <mxCell id="inrUxBcmJeVZfQg9o6Wa-1" parent="inrUxBcmJeVZfQg9o6Wa-0"/>
                <mxCell id="inrUxBcmJeVZfQg9o6Wa-2" style="edgeStyle=orthogonalEdgeStyle;rounded=0;orthogonalLoop=1;jettySize=auto;html=1;exitX=1;exitY=0.25;exitDx=0;exitDy=0;fontColor=#0A0A0A;targetPerimeterSpacing=0;strokeWidth=3;fontSize=3;" parent="inrUxBcmJeVZfQg9o6Wa-1" source="inrUxBcmJeVZfQg9o6Wa-4" edge="1">
                    <mxGeometry relative="1" as="geometry">
                        <mxPoint x="-140.00000000000023" y="228" as="targetPoint"/>
                    </mxGeometry>
                </mxCell>
                <mxCell id="inrUxBcmJeVZfQg9o6Wa-3" value="Input" style="edgeLabel;html=1;align=center;verticalAlign=middle;resizable=0;points=[];fontColor=#0A0A0A;labelBackgroundColor=#FFFFFF;" parent="inrUxBcmJeVZfQg9o6Wa-2" vertex="1" connectable="0">
                    <mxGeometry x="-0.0368" relative="1" as="geometry">
                        <mxPoint as="offset"/>
                    </mxGeometry>
                </mxCell>
                <mxCell id="inrUxBcmJeVZfQg9o6Wa-4" value="Authentiation Filter" style="whiteSpace=wrap;html=1;verticalAlign=middle;horizontal=0;fillColor=#FFFFFF;fontColor=#0A0A0A;" parent="inrUxBcmJeVZfQg9o6Wa-1" vertex="1">
                    <mxGeometry x="-430" y="150" width="70" height="310" as="geometry"/>
                </mxCell>
                <mxCell id="inrUxBcmJeVZfQg9o6Wa-5" style="edgeStyle=orthogonalEdgeStyle;rounded=0;orthogonalLoop=1;jettySize=auto;html=1;entryX=0;entryY=0.5;entryDx=0;entryDy=0;fontColor=#000000;fillColor=#60a917;strokeColor=#2D7600;targetPerimeterSpacing=0;strokeWidth=3;exitX=1;exitY=0.5;exitDx=0;exitDy=0;" parent="inrUxBcmJeVZfQg9o6Wa-1" source="inrUxBcmJeVZfQg9o6Wa-13" edge="1">
                    <mxGeometry relative="1" as="geometry">
                        <mxPoint x="30" y="250" as="sourcePoint"/>
                        <mxPoint x="160" y="340" as="targetPoint"/>
                    </mxGeometry>
                </mxCell>
                <mxCell id="inrUxBcmJeVZfQg9o6Wa-6" style="edgeStyle=orthogonalEdgeStyle;rounded=0;orthogonalLoop=1;jettySize=auto;html=1;entryX=0;entryY=0.5;entryDx=0;entryDy=0;fontColor=#000000;exitX=1;exitY=0.5;exitDx=0;exitDy=0;" parent="inrUxBcmJeVZfQg9o6Wa-1" source="inrUxBcmJeVZfQg9o6Wa-13" target="inrUxBcmJeVZfQg9o6Wa-8" edge="1">
                    <mxGeometry relative="1" as="geometry">
                        <mxPoint x="30" y="250" as="sourcePoint"/>
                    </mxGeometry>
                </mxCell>
                <mxCell id="inrUxBcmJeVZfQg9o6Wa-7" style="edgeStyle=orthogonalEdgeStyle;rounded=0;orthogonalLoop=1;jettySize=auto;html=1;entryX=0;entryY=0.5;entryDx=0;entryDy=0;fontColor=#000000;" parent="inrUxBcmJeVZfQg9o6Wa-1" target="inrUxBcmJeVZfQg9o6Wa-11" edge="1">
                    <mxGeometry relative="1" as="geometry">
                        <mxPoint x="-59" y="305" as="sourcePoint"/>
                        <mxPoint x="160" y="535" as="targetPoint"/>
                    </mxGeometry>
                </mxCell>
                <mxCell id="inrUxBcmJeVZfQg9o6Wa-8" value="AutheticationProvider1&lt;br&gt;&lt;div style=&quot;text-align: left&quot;&gt;&lt;span&gt;&lt;br&gt;&lt;/span&gt;&lt;/div&gt;&lt;div style=&quot;text-align: left&quot;&gt;&lt;span&gt;&lt;br&gt;&lt;/span&gt;&lt;/div&gt;&lt;div style=&quot;text-align: left&quot;&gt;&lt;span&gt;- authenticate( )&lt;/span&gt;&lt;/div&gt;&lt;div style=&quot;text-align: left&quot;&gt;&lt;span&gt;- supports()&lt;/span&gt;&lt;/div&gt;&lt;div style=&quot;text-align: left&quot;&gt;&lt;span&gt;&lt;br&gt;&lt;/span&gt;&lt;/div&gt;" style="whiteSpace=wrap;html=1;aspect=fixed;fontColor=#000000;verticalAlign=middle;fillColor=#FFFFFF;" parent="inrUxBcmJeVZfQg9o6Wa-1" vertex="1">
                    <mxGeometry x="160" y="100" width="140" height="140" as="geometry"/>
                </mxCell>
                <mxCell id="inrUxBcmJeVZfQg9o6Wa-9" style="edgeStyle=orthogonalEdgeStyle;rounded=0;orthogonalLoop=1;jettySize=auto;html=1;entryX=0;entryY=0.5;entryDx=0;entryDy=0;fontColor=#0A0A0A;targetPerimeterSpacing=0;strokeWidth=3;fillColor=#60a917;strokeColor=#2D7600;" parent="inrUxBcmJeVZfQg9o6Wa-1" source="inrUxBcmJeVZfQg9o6Wa-10" target="inrUxBcmJeVZfQg9o6Wa-12" edge="1">
                    <mxGeometry relative="1" as="geometry"/>
                </mxCell>
                <mxCell id="inrUxBcmJeVZfQg9o6Wa-10" value="&lt;b&gt;&lt;i&gt;AutheticationProvider2&lt;br&gt;&lt;/i&gt;&lt;/b&gt;&lt;div style=&quot;text-align: left&quot;&gt;&lt;span&gt;&lt;b&gt;&lt;i&gt;&lt;br&gt;&lt;/i&gt;&lt;/b&gt;&lt;/span&gt;&lt;/div&gt;&lt;div style=&quot;text-align: left&quot;&gt;&lt;span&gt;&lt;b&gt;&lt;i&gt;&lt;br&gt;&lt;/i&gt;&lt;/b&gt;&lt;/span&gt;&lt;/div&gt;&lt;div style=&quot;text-align: left&quot;&gt;&lt;span&gt;&lt;b&gt;&lt;i&gt;- authenticate( )&lt;/i&gt;&lt;/b&gt;&lt;/span&gt;&lt;/div&gt;&lt;div style=&quot;text-align: left&quot;&gt;&lt;b&gt;&lt;i&gt;- &lt;font color=&quot;#1a3300&quot;&gt;supports&lt;/font&gt;()&lt;/i&gt;&lt;/b&gt;&lt;/div&gt;&lt;div style=&quot;text-align: left&quot;&gt;&lt;span&gt;&lt;br&gt;&lt;/span&gt;&lt;/div&gt;" style="whiteSpace=wrap;html=1;aspect=fixed;fontColor=#000000;verticalAlign=middle;fillColor=#C5C6ED;" parent="inrUxBcmJeVZfQg9o6Wa-1" vertex="1">
                    <mxGeometry x="160" y="268" width="140" height="140" as="geometry"/>
                </mxCell>
                <mxCell id="inrUxBcmJeVZfQg9o6Wa-11" value="AutheticationProvider3&lt;br&gt;&lt;div style=&quot;text-align: left&quot;&gt;&lt;span&gt;&lt;br&gt;&lt;/span&gt;&lt;/div&gt;&lt;div style=&quot;text-align: left&quot;&gt;&lt;span&gt;&lt;br&gt;&lt;/span&gt;&lt;/div&gt;&lt;div style=&quot;text-align: left&quot;&gt;&lt;span&gt;- authenticate( )&lt;/span&gt;&lt;/div&gt;&lt;div style=&quot;text-align: left&quot;&gt;&lt;span&gt;- supports()&lt;/span&gt;&lt;/div&gt;" style="whiteSpace=wrap;html=1;aspect=fixed;fontColor=#000000;verticalAlign=middle;fillColor=#FFFFFF;" parent="inrUxBcmJeVZfQg9o6Wa-1" vertex="1">
                    <mxGeometry x="161" y="430" width="139" height="139" as="geometry"/>
                </mxCell>
                <mxCell id="inrUxBcmJeVZfQg9o6Wa-12" value="&lt;i style=&quot;font-weight: bold&quot;&gt;UserDetailsService&lt;br&gt;&lt;/i&gt;&lt;br&gt;&lt;div style=&quot;text-align: left&quot;&gt;- loadUserByName( )&lt;/div&gt;" style="whiteSpace=wrap;html=1;aspect=fixed;fontColor=#000000;verticalAlign=middle;fillColor=#C5C6ED;" parent="inrUxBcmJeVZfQg9o6Wa-1" vertex="1">
                    <mxGeometry x="470" y="268" width="140" height="140" as="geometry"/>
                </mxCell>
                <mxCell id="inrUxBcmJeVZfQg9o6Wa-13" value="AuthenticationManager&lt;br&gt;- authenticate( )" style="rounded=0;whiteSpace=wrap;html=1;fontColor=#0A0A0A;fillColor=#FFFFFF;verticalAlign=middle;horizontal=0;" parent="inrUxBcmJeVZfQg9o6Wa-1" vertex="1">
                    <mxGeometry x="-140" y="150" width="80" height="310" as="geometry"/>
                </mxCell>
                <mxCell id="inrUxBcmJeVZfQg9o6Wa-14" value="" style="endArrow=classic;html=1;fontSize=11;fontColor=#0A0A0A;targetPerimeterSpacing=0;strokeWidth=3;exitX=0;exitY=0.75;exitDx=0;exitDy=0;entryX=1;entryY=0.75;entryDx=0;entryDy=0;" parent="inrUxBcmJeVZfQg9o6Wa-1" source="inrUxBcmJeVZfQg9o6Wa-13" target="inrUxBcmJeVZfQg9o6Wa-4" edge="1">
                    <mxGeometry width="50" height="50" relative="1" as="geometry">
                        <mxPoint x="-270" y="540" as="sourcePoint"/>
                        <mxPoint x="-220" y="490" as="targetPoint"/>
                    </mxGeometry>
                </mxCell>
                <mxCell id="inrUxBcmJeVZfQg9o6Wa-15" value="Output" style="edgeLabel;html=1;align=center;verticalAlign=middle;resizable=0;points=[];fontSize=3;fontColor=#0A0A0A;" parent="inrUxBcmJeVZfQg9o6Wa-14" vertex="1" connectable="0">
                    <mxGeometry x="-0.1109" y="1" relative="1" as="geometry">
                        <mxPoint as="offset"/>
                    </mxGeometry>
                </mxCell>
                <mxCell id="inrUxBcmJeVZfQg9o6Wa-16" value="&lt;font style=&quot;font-size: 10px&quot;&gt;Output&lt;/font&gt;" style="edgeLabel;html=1;align=center;verticalAlign=middle;resizable=0;points=[];fontSize=11;fontColor=#0A0A0A;labelBackgroundColor=#FFFFFF;" parent="inrUxBcmJeVZfQg9o6Wa-14" vertex="1" connectable="0">
                    <mxGeometry x="-0.1018" y="1" relative="1" as="geometry">
                        <mxPoint as="offset"/>
                    </mxGeometry>
                </mxCell>
                <mxCell id="inrUxBcmJeVZfQg9o6Wa-17" value="&lt;h1 style=&quot;font-size: 14px&quot;&gt;&lt;font style=&quot;font-size: 14px&quot;&gt;Authentication&lt;/font&gt;&lt;/h1&gt;&lt;p style=&quot;text-align: center ; font-size: 14px&quot;&gt;&lt;font style=&quot;font-size: 11px&quot;&gt;&lt;b&gt;&lt;i&gt;Principal&lt;/i&gt;&lt;/b&gt;&lt;/font&gt;&lt;/p&gt;" style="text;html=1;strokeColor=none;fillColor=none;spacing=5;spacingTop=-20;whiteSpace=wrap;overflow=hidden;rounded=0;labelBackgroundColor=#FFFFFF;fontSize=11;fontColor=#0A0A0A;verticalAlign=middle;" parent="inrUxBcmJeVZfQg9o6Wa-1" vertex="1">
                    <mxGeometry x="-300" y="410" width="210" height="70" as="geometry"/>
                </mxCell>
                <mxCell id="inrUxBcmJeVZfQg9o6Wa-18" value="&lt;h1 style=&quot;font-size: 14px&quot;&gt;&lt;font style=&quot;font-size: 14px&quot;&gt;Authentication&lt;/font&gt;&lt;/h1&gt;&lt;p style=&quot;text-align: center ; font-size: 14px&quot;&gt;&lt;font style=&quot;font-size: 11px&quot;&gt;&lt;b&gt;&lt;i&gt;Credential&lt;/i&gt;&lt;/b&gt;&lt;/font&gt;&lt;/p&gt;" style="text;html=1;strokeColor=none;fillColor=none;spacing=5;spacingTop=-20;whiteSpace=wrap;overflow=hidden;rounded=0;labelBackgroundColor=#FFFFFF;fontSize=11;fontColor=#0A0A0A;verticalAlign=middle;" parent="inrUxBcmJeVZfQg9o6Wa-1" vertex="1">
                    <mxGeometry x="-300" y="150" width="210" height="70" as="geometry"/>
                </mxCell>
            </root>
        </mxGraphModel>
    </diagram>
</mxfile>